<mxfile host="app.diagrams.net" modified="2022-04-29T06:03:57.110Z" agent="5.0 (Windows NT 10.0; Win64; x64) AppleWebKit/537.36 (KHTML, like Gecko) Chrome/100.0.4896.127 Safari/537.36 Edg/100.0.1185.50" etag="WGEFIhdBU78QXNGK2cvO" version="17.4.6" type="github">
  <diagram id="R2lEEEUBdFMjLlhIrx00" name="Page-1">
    <mxGraphModel dx="1888" dy="571" grid="1" gridSize="10" guides="1" tooltips="1" connect="1" arrows="1" fold="1" page="1" pageScale="1" pageWidth="850" pageHeight="1100" math="0" shadow="0" extFonts="Permanent Marker^https://fonts.googleapis.com/css?family=Permanent+Marker">
      <root>
        <mxCell id="0" />
        <mxCell id="1" parent="0" />
        <mxCell id="IWv8I7C5dwKYRpesAwEO-52" value="Owner" style="swimlane;fontStyle=0;childLayout=stackLayout;horizontal=1;startSize=26;horizontalStack=0;resizeParent=1;resizeParentMax=0;resizeLast=0;collapsible=1;marginBottom=0;align=left;fontSize=13;fontFamily=Comic Sans MS;" vertex="1" parent="1">
          <mxGeometry y="90" width="160" height="146" as="geometry" />
        </mxCell>
        <mxCell id="IWv8I7C5dwKYRpesAwEO-80" value="Owner ID" style="text;strokeColor=none;fillColor=none;spacingLeft=4;spacingRight=4;overflow=hidden;rotatable=0;points=[[0,0.5],[1,0.5]];portConstraint=eastwest;fontSize=12;fontFamily=Comic Sans MS;" vertex="1" parent="IWv8I7C5dwKYRpesAwEO-52">
          <mxGeometry y="26" width="160" height="30" as="geometry" />
        </mxCell>
        <mxCell id="IWv8I7C5dwKYRpesAwEO-53" value="Frist name" style="text;strokeColor=none;fillColor=none;spacingLeft=4;spacingRight=4;overflow=hidden;rotatable=0;points=[[0,0.5],[1,0.5]];portConstraint=eastwest;fontSize=13;fontFamily=Comic Sans MS;align=left;fontStyle=0" vertex="1" parent="IWv8I7C5dwKYRpesAwEO-52">
          <mxGeometry y="56" width="160" height="30" as="geometry" />
        </mxCell>
        <mxCell id="IWv8I7C5dwKYRpesAwEO-78" value="Second name" style="text;strokeColor=none;fillColor=none;spacingLeft=4;spacingRight=4;overflow=hidden;rotatable=0;points=[[0,0.5],[1,0.5]];portConstraint=eastwest;fontSize=12;fontFamily=Comic Sans MS;" vertex="1" parent="IWv8I7C5dwKYRpesAwEO-52">
          <mxGeometry y="86" width="160" height="30" as="geometry" />
        </mxCell>
        <mxCell id="IWv8I7C5dwKYRpesAwEO-54" value="Address" style="text;strokeColor=none;fillColor=none;spacingLeft=4;spacingRight=4;overflow=hidden;rotatable=0;points=[[0,0.5],[1,0.5]];portConstraint=eastwest;fontSize=13;fontFamily=Comic Sans MS;align=left;fontStyle=0" vertex="1" parent="IWv8I7C5dwKYRpesAwEO-52">
          <mxGeometry y="116" width="160" height="30" as="geometry" />
        </mxCell>
        <mxCell id="IWv8I7C5dwKYRpesAwEO-71" value="Property" style="swimlane;fontStyle=0;childLayout=stackLayout;horizontal=1;startSize=26;horizontalStack=0;resizeParent=1;resizeParentMax=0;resizeLast=0;collapsible=1;marginBottom=0;align=center;fontSize=14;fontFamily=Comic Sans MS;" vertex="1" parent="1">
          <mxGeometry x="160" y="90" width="160" height="266" as="geometry" />
        </mxCell>
        <mxCell id="IWv8I7C5dwKYRpesAwEO-87" value="Property ID" style="text;strokeColor=none;fillColor=none;spacingLeft=4;spacingRight=4;overflow=hidden;rotatable=0;points=[[0,0.5],[1,0.5]];portConstraint=eastwest;fontSize=12;fontFamily=Comic Sans MS;" vertex="1" parent="IWv8I7C5dwKYRpesAwEO-71">
          <mxGeometry y="26" width="160" height="30" as="geometry" />
        </mxCell>
        <mxCell id="IWv8I7C5dwKYRpesAwEO-72" value="Street" style="text;strokeColor=none;fillColor=none;spacingLeft=4;spacingRight=4;overflow=hidden;rotatable=0;points=[[0,0.5],[1,0.5]];portConstraint=eastwest;fontSize=12;fontFamily=Comic Sans MS;" vertex="1" parent="IWv8I7C5dwKYRpesAwEO-71">
          <mxGeometry y="56" width="160" height="30" as="geometry" />
        </mxCell>
        <mxCell id="IWv8I7C5dwKYRpesAwEO-107" value="Postcode" style="text;strokeColor=none;fillColor=none;spacingLeft=4;spacingRight=4;overflow=hidden;rotatable=0;points=[[0,0.5],[1,0.5]];portConstraint=eastwest;fontSize=12;fontFamily=Comic Sans MS;" vertex="1" parent="IWv8I7C5dwKYRpesAwEO-71">
          <mxGeometry y="86" width="160" height="30" as="geometry" />
        </mxCell>
        <mxCell id="IWv8I7C5dwKYRpesAwEO-77" value="Price" style="text;strokeColor=none;fillColor=none;spacingLeft=4;spacingRight=4;overflow=hidden;rotatable=0;points=[[0,0.5],[1,0.5]];portConstraint=eastwest;fontSize=12;fontFamily=Comic Sans MS;" vertex="1" parent="IWv8I7C5dwKYRpesAwEO-71">
          <mxGeometry y="116" width="160" height="30" as="geometry" />
        </mxCell>
        <mxCell id="IWv8I7C5dwKYRpesAwEO-73" value="Type" style="text;strokeColor=none;fillColor=none;spacingLeft=4;spacingRight=4;overflow=hidden;rotatable=0;points=[[0,0.5],[1,0.5]];portConstraint=eastwest;fontSize=12;fontFamily=Comic Sans MS;" vertex="1" parent="IWv8I7C5dwKYRpesAwEO-71">
          <mxGeometry y="146" width="160" height="30" as="geometry" />
        </mxCell>
        <mxCell id="IWv8I7C5dwKYRpesAwEO-74" value="Bedrooms" style="text;strokeColor=none;fillColor=none;spacingLeft=4;spacingRight=4;overflow=hidden;rotatable=0;points=[[0,0.5],[1,0.5]];portConstraint=eastwest;fontSize=12;fontFamily=Comic Sans MS;" vertex="1" parent="IWv8I7C5dwKYRpesAwEO-71">
          <mxGeometry y="176" width="160" height="30" as="geometry" />
        </mxCell>
        <mxCell id="IWv8I7C5dwKYRpesAwEO-124" value="Pets allowed" style="text;strokeColor=none;fillColor=none;spacingLeft=4;spacingRight=4;overflow=hidden;rotatable=0;points=[[0,0.5],[1,0.5]];portConstraint=eastwest;fontSize=12;fontFamily=Comic Sans MS;" vertex="1" parent="IWv8I7C5dwKYRpesAwEO-71">
          <mxGeometry y="206" width="160" height="30" as="geometry" />
        </mxCell>
        <mxCell id="IWv8I7C5dwKYRpesAwEO-81" value="Owner ID" style="text;strokeColor=none;fillColor=none;spacingLeft=4;spacingRight=4;overflow=hidden;rotatable=0;points=[[0,0.5],[1,0.5]];portConstraint=eastwest;fontSize=12;fontFamily=Comic Sans MS;" vertex="1" parent="IWv8I7C5dwKYRpesAwEO-71">
          <mxGeometry y="236" width="160" height="30" as="geometry" />
        </mxCell>
        <mxCell id="IWv8I7C5dwKYRpesAwEO-83" value="Rental" style="swimlane;fontStyle=0;childLayout=stackLayout;horizontal=1;startSize=26;horizontalStack=0;resizeParent=1;resizeParentMax=0;resizeLast=0;collapsible=1;marginBottom=0;align=center;fontSize=14;fontFamily=Comic Sans MS;" vertex="1" parent="1">
          <mxGeometry x="480" y="90" width="160" height="176" as="geometry" />
        </mxCell>
        <mxCell id="IWv8I7C5dwKYRpesAwEO-117" value="Rental ID" style="text;strokeColor=none;fillColor=none;spacingLeft=4;spacingRight=4;overflow=hidden;rotatable=0;points=[[0,0.5],[1,0.5]];portConstraint=eastwest;fontSize=12;fontFamily=Comic Sans MS;" vertex="1" parent="IWv8I7C5dwKYRpesAwEO-83">
          <mxGeometry y="26" width="160" height="30" as="geometry" />
        </mxCell>
        <mxCell id="IWv8I7C5dwKYRpesAwEO-84" value="Rental start date" style="text;strokeColor=none;fillColor=none;spacingLeft=4;spacingRight=4;overflow=hidden;rotatable=0;points=[[0,0.5],[1,0.5]];portConstraint=eastwest;fontSize=12;fontFamily=Comic Sans MS;" vertex="1" parent="IWv8I7C5dwKYRpesAwEO-83">
          <mxGeometry y="56" width="160" height="30" as="geometry" />
        </mxCell>
        <mxCell id="IWv8I7C5dwKYRpesAwEO-85" value="Duration" style="text;strokeColor=none;fillColor=none;spacingLeft=4;spacingRight=4;overflow=hidden;rotatable=0;points=[[0,0.5],[1,0.5]];portConstraint=eastwest;fontSize=12;fontFamily=Comic Sans MS;" vertex="1" parent="IWv8I7C5dwKYRpesAwEO-83">
          <mxGeometry y="86" width="160" height="30" as="geometry" />
        </mxCell>
        <mxCell id="IWv8I7C5dwKYRpesAwEO-110" value="Client ID" style="text;strokeColor=none;fillColor=none;spacingLeft=4;spacingRight=4;overflow=hidden;rotatable=0;points=[[0,0.5],[1,0.5]];portConstraint=eastwest;fontSize=12;fontFamily=Comic Sans MS;" vertex="1" parent="IWv8I7C5dwKYRpesAwEO-83">
          <mxGeometry y="116" width="160" height="30" as="geometry" />
        </mxCell>
        <mxCell id="IWv8I7C5dwKYRpesAwEO-98" value="Property ID" style="text;strokeColor=none;fillColor=none;spacingLeft=4;spacingRight=4;overflow=hidden;rotatable=0;points=[[0,0.5],[1,0.5]];portConstraint=eastwest;fontSize=12;fontFamily=Comic Sans MS;" vertex="1" parent="IWv8I7C5dwKYRpesAwEO-83">
          <mxGeometry y="146" width="160" height="30" as="geometry" />
        </mxCell>
        <mxCell id="IWv8I7C5dwKYRpesAwEO-88" value="Maintenance" style="swimlane;fontStyle=0;childLayout=stackLayout;horizontal=1;startSize=26;horizontalStack=0;resizeParent=1;resizeParentMax=0;resizeLast=0;collapsible=1;marginBottom=0;align=center;fontSize=14;fontFamily=Comic Sans MS;" vertex="1" parent="1">
          <mxGeometry x="150" y="390" width="160" height="206" as="geometry" />
        </mxCell>
        <mxCell id="IWv8I7C5dwKYRpesAwEO-89" value="Maintenance ID" style="text;strokeColor=none;fillColor=none;spacingLeft=4;spacingRight=4;overflow=hidden;rotatable=0;points=[[0,0.5],[1,0.5]];portConstraint=eastwest;fontSize=12;fontFamily=Comic Sans MS;" vertex="1" parent="IWv8I7C5dwKYRpesAwEO-88">
          <mxGeometry y="26" width="160" height="30" as="geometry" />
        </mxCell>
        <mxCell id="IWv8I7C5dwKYRpesAwEO-108" value="Property ID" style="text;strokeColor=none;fillColor=none;spacingLeft=4;spacingRight=4;overflow=hidden;rotatable=0;points=[[0,0.5],[1,0.5]];portConstraint=eastwest;fontSize=12;fontFamily=Comic Sans MS;" vertex="1" parent="IWv8I7C5dwKYRpesAwEO-88">
          <mxGeometry y="56" width="160" height="30" as="geometry" />
        </mxCell>
        <mxCell id="IWv8I7C5dwKYRpesAwEO-90" value="Isuue" style="text;strokeColor=none;fillColor=none;spacingLeft=4;spacingRight=4;overflow=hidden;rotatable=0;points=[[0,0.5],[1,0.5]];portConstraint=eastwest;fontSize=12;fontFamily=Comic Sans MS;" vertex="1" parent="IWv8I7C5dwKYRpesAwEO-88">
          <mxGeometry y="86" width="160" height="30" as="geometry" />
        </mxCell>
        <mxCell id="IWv8I7C5dwKYRpesAwEO-91" value="Estimated cost" style="text;strokeColor=none;fillColor=none;spacingLeft=4;spacingRight=4;overflow=hidden;rotatable=0;points=[[0,0.5],[1,0.5]];portConstraint=eastwest;fontSize=12;fontFamily=Comic Sans MS;" vertex="1" parent="IWv8I7C5dwKYRpesAwEO-88">
          <mxGeometry y="116" width="160" height="30" as="geometry" />
        </mxCell>
        <mxCell id="IWv8I7C5dwKYRpesAwEO-106" value="Resolved" style="text;strokeColor=none;fillColor=none;spacingLeft=4;spacingRight=4;overflow=hidden;rotatable=0;points=[[0,0.5],[1,0.5]];portConstraint=eastwest;fontSize=12;fontFamily=Comic Sans MS;" vertex="1" parent="IWv8I7C5dwKYRpesAwEO-88">
          <mxGeometry y="146" width="160" height="30" as="geometry" />
        </mxCell>
        <mxCell id="IWv8I7C5dwKYRpesAwEO-105" value="Contractor ID" style="text;strokeColor=none;fillColor=none;spacingLeft=4;spacingRight=4;overflow=hidden;rotatable=0;points=[[0,0.5],[1,0.5]];portConstraint=eastwest;fontSize=12;fontFamily=Comic Sans MS;" vertex="1" parent="IWv8I7C5dwKYRpesAwEO-88">
          <mxGeometry y="176" width="160" height="30" as="geometry" />
        </mxCell>
        <mxCell id="IWv8I7C5dwKYRpesAwEO-100" value="Contractors" style="swimlane;fontStyle=0;childLayout=stackLayout;horizontal=1;startSize=26;horizontalStack=0;resizeParent=1;resizeParentMax=0;resizeLast=0;collapsible=1;marginBottom=0;align=center;fontSize=14;fontFamily=Comic Sans MS;" vertex="1" parent="1">
          <mxGeometry x="-10" y="390" width="160" height="116" as="geometry" />
        </mxCell>
        <mxCell id="IWv8I7C5dwKYRpesAwEO-101" value="Contractor ID" style="text;strokeColor=none;fillColor=none;spacingLeft=4;spacingRight=4;overflow=hidden;rotatable=0;points=[[0,0.5],[1,0.5]];portConstraint=eastwest;fontSize=12;fontFamily=Comic Sans MS;" vertex="1" parent="IWv8I7C5dwKYRpesAwEO-100">
          <mxGeometry y="26" width="160" height="30" as="geometry" />
        </mxCell>
        <mxCell id="IWv8I7C5dwKYRpesAwEO-102" value="First name" style="text;strokeColor=none;fillColor=none;spacingLeft=4;spacingRight=4;overflow=hidden;rotatable=0;points=[[0,0.5],[1,0.5]];portConstraint=eastwest;fontSize=12;fontFamily=Comic Sans MS;" vertex="1" parent="IWv8I7C5dwKYRpesAwEO-100">
          <mxGeometry y="56" width="160" height="30" as="geometry" />
        </mxCell>
        <mxCell id="IWv8I7C5dwKYRpesAwEO-103" value="Second name" style="text;strokeColor=none;fillColor=none;spacingLeft=4;spacingRight=4;overflow=hidden;rotatable=0;points=[[0,0.5],[1,0.5]];portConstraint=eastwest;fontSize=12;fontFamily=Comic Sans MS;" vertex="1" parent="IWv8I7C5dwKYRpesAwEO-100">
          <mxGeometry y="86" width="160" height="30" as="geometry" />
        </mxCell>
        <mxCell id="IWv8I7C5dwKYRpesAwEO-111" value="Deposit" style="swimlane;fontStyle=0;childLayout=stackLayout;horizontal=1;startSize=26;horizontalStack=0;resizeParent=1;resizeParentMax=0;resizeLast=0;collapsible=1;marginBottom=0;align=center;fontSize=14;fontFamily=Comic Sans MS;" vertex="1" parent="1">
          <mxGeometry x="640" y="90" width="160" height="146" as="geometry" />
        </mxCell>
        <mxCell id="IWv8I7C5dwKYRpesAwEO-116" value="Deposit ID" style="text;strokeColor=none;fillColor=none;spacingLeft=4;spacingRight=4;overflow=hidden;rotatable=0;points=[[0,0.5],[1,0.5]];portConstraint=eastwest;fontSize=12;fontFamily=Comic Sans MS;" vertex="1" parent="IWv8I7C5dwKYRpesAwEO-111">
          <mxGeometry y="26" width="160" height="30" as="geometry" />
        </mxCell>
        <mxCell id="IWv8I7C5dwKYRpesAwEO-115" value="Client ID" style="text;strokeColor=none;fillColor=none;spacingLeft=4;spacingRight=4;overflow=hidden;rotatable=0;points=[[0,0.5],[1,0.5]];portConstraint=eastwest;fontSize=12;fontFamily=Comic Sans MS;" vertex="1" parent="IWv8I7C5dwKYRpesAwEO-111">
          <mxGeometry y="56" width="160" height="30" as="geometry" />
        </mxCell>
        <mxCell id="IWv8I7C5dwKYRpesAwEO-86" value="Deposit amount" style="text;strokeColor=none;fillColor=none;spacingLeft=4;spacingRight=4;overflow=hidden;rotatable=0;points=[[0,0.5],[1,0.5]];portConstraint=eastwest;fontSize=12;fontFamily=Comic Sans MS;" vertex="1" parent="IWv8I7C5dwKYRpesAwEO-111">
          <mxGeometry y="86" width="160" height="30" as="geometry" />
        </mxCell>
        <mxCell id="IWv8I7C5dwKYRpesAwEO-92" value="Deposit paid" style="text;strokeColor=none;fillColor=none;spacingLeft=4;spacingRight=4;overflow=hidden;rotatable=0;points=[[0,0.5],[1,0.5]];portConstraint=eastwest;fontSize=12;fontFamily=Comic Sans MS;" vertex="1" parent="IWv8I7C5dwKYRpesAwEO-111">
          <mxGeometry y="116" width="160" height="30" as="geometry" />
        </mxCell>
        <mxCell id="IWv8I7C5dwKYRpesAwEO-119" value="Telephone number" style="swimlane;fontStyle=0;childLayout=stackLayout;horizontal=1;startSize=26;horizontalStack=0;resizeParent=1;resizeParentMax=0;resizeLast=0;collapsible=1;marginBottom=0;align=center;fontSize=14;fontFamily=Comic Sans MS;" vertex="1" parent="1">
          <mxGeometry x="310" y="390" width="160" height="146" as="geometry" />
        </mxCell>
        <mxCell id="IWv8I7C5dwKYRpesAwEO-120" value="Telephone ID" style="text;strokeColor=none;fillColor=none;spacingLeft=4;spacingRight=4;overflow=hidden;rotatable=0;points=[[0,0.5],[1,0.5]];portConstraint=eastwest;fontSize=12;fontFamily=Comic Sans MS;" vertex="1" parent="IWv8I7C5dwKYRpesAwEO-119">
          <mxGeometry y="26" width="160" height="30" as="geometry" />
        </mxCell>
        <mxCell id="IWv8I7C5dwKYRpesAwEO-121" value="Owner telephone" style="text;strokeColor=none;fillColor=none;spacingLeft=4;spacingRight=4;overflow=hidden;rotatable=0;points=[[0,0.5],[1,0.5]];portConstraint=eastwest;fontSize=12;fontFamily=Comic Sans MS;" vertex="1" parent="IWv8I7C5dwKYRpesAwEO-119">
          <mxGeometry y="56" width="160" height="30" as="geometry" />
        </mxCell>
        <mxCell id="IWv8I7C5dwKYRpesAwEO-122" value="Client telephone" style="text;strokeColor=none;fillColor=none;spacingLeft=4;spacingRight=4;overflow=hidden;rotatable=0;points=[[0,0.5],[1,0.5]];portConstraint=eastwest;fontSize=12;fontFamily=Comic Sans MS;" vertex="1" parent="IWv8I7C5dwKYRpesAwEO-119">
          <mxGeometry y="86" width="160" height="30" as="geometry" />
        </mxCell>
        <mxCell id="IWv8I7C5dwKYRpesAwEO-123" value="Contractor telephone" style="text;strokeColor=none;fillColor=none;spacingLeft=4;spacingRight=4;overflow=hidden;rotatable=0;points=[[0,0.5],[1,0.5]];portConstraint=eastwest;fontSize=12;fontFamily=Comic Sans MS;" vertex="1" parent="IWv8I7C5dwKYRpesAwEO-119">
          <mxGeometry y="116" width="160" height="30" as="geometry" />
        </mxCell>
        <mxCell id="IWv8I7C5dwKYRpesAwEO-65" value="Clients" style="swimlane;fontStyle=0;childLayout=stackLayout;horizontal=1;startSize=26;horizontalStack=0;resizeParent=1;resizeParentMax=0;resizeLast=0;collapsible=1;marginBottom=0;align=center;fontSize=14;fontFamily=Comic Sans MS;" vertex="1" parent="1">
          <mxGeometry x="320" y="90" width="160" height="146" as="geometry" />
        </mxCell>
        <mxCell id="IWv8I7C5dwKYRpesAwEO-99" value="Client ID" style="text;strokeColor=none;fillColor=none;spacingLeft=4;spacingRight=4;overflow=hidden;rotatable=0;points=[[0,0.5],[1,0.5]];portConstraint=eastwest;fontSize=12;fontFamily=Comic Sans MS;" vertex="1" parent="IWv8I7C5dwKYRpesAwEO-65">
          <mxGeometry y="26" width="160" height="30" as="geometry" />
        </mxCell>
        <mxCell id="IWv8I7C5dwKYRpesAwEO-66" value="Client first name" style="text;strokeColor=none;fillColor=none;spacingLeft=4;spacingRight=4;overflow=hidden;rotatable=0;points=[[0,0.5],[1,0.5]];portConstraint=eastwest;fontSize=12;fontFamily=Comic Sans MS;" vertex="1" parent="IWv8I7C5dwKYRpesAwEO-65">
          <mxGeometry y="56" width="160" height="30" as="geometry" />
        </mxCell>
        <mxCell id="IWv8I7C5dwKYRpesAwEO-79" value="Client second name" style="text;strokeColor=none;fillColor=none;spacingLeft=4;spacingRight=4;overflow=hidden;rotatable=0;points=[[0,0.5],[1,0.5]];portConstraint=eastwest;fontSize=12;fontFamily=Comic Sans MS;" vertex="1" parent="IWv8I7C5dwKYRpesAwEO-65">
          <mxGeometry y="86" width="160" height="30" as="geometry" />
        </mxCell>
        <mxCell id="IWv8I7C5dwKYRpesAwEO-67" value="Client day of birth" style="text;strokeColor=none;fillColor=none;spacingLeft=4;spacingRight=4;overflow=hidden;rotatable=0;points=[[0,0.5],[1,0.5]];portConstraint=eastwest;fontSize=12;fontFamily=Comic Sans MS;" vertex="1" parent="IWv8I7C5dwKYRpesAwEO-65">
          <mxGeometry y="116" width="160" height="30" as="geometry" />
        </mxCell>
      </root>
    </mxGraphModel>
  </diagram>
</mxfile>
